<?xml version="1.0" encoding="UTF-8" standalone="no"?>
<!DOCTYPE svg PUBLIC "-//W3C//DTD SVG 1.1//EN"
 "http://www.w3.org/Graphics/SVG/1.1/DTD/svg11.dtd">
<!-- Generated by graphviz version 2.26.3 (20100126.1600)
 -->
<!-- Title: fickileaks Pages: 1 -->
<svg width="387pt" height="324pt"
 viewBox="0.00 0.00 387.00 324.00" xmlns="http://www.w3.org/2000/svg" xmlns:xlink="http://www.w3.org/1999/xlink">
<g id="graph1" class="graph" transform="scale(1 1) rotate(0) translate(36 288)">
<title>fickileaks</title>
<polygon fill="white" stroke="white" points="-36,37 -36,-288 352,-288 352,37 -36,37"/>
<!-- artnoveau -->
<g id="node2" class="node"><title>artnoveau</title>
<a xlink:href="http://metamemory.de" xlink:title="artnoveau">
<ellipse fill="none" stroke="black" cx="145" cy="-234" rx="40.0132" ry="18"/>
<text text-anchor="middle" x="145" y="-231.5" font-family="Times Roman,serif" font-size="10.00" fill="#204a87">artnoveau</text>
</a>
</g>
<!-- fotografiona -->
<g id="node4" class="node"><title>fotografiona</title>
<a xlink:href="http://fotografiona.wordpress.com/" xlink:title="fotografiona">
<ellipse fill="none" stroke="black" cx="45" cy="-162" rx="45.0529" ry="18"/>
<text text-anchor="middle" x="45" y="-159.5" font-family="Times Roman,serif" font-size="10.00" fill="#204a87">fotografiona</text>
</a>
</g>
<!-- artnoveau&#45;&gt;fotografiona -->
<g id="edge26" class="edge"><title>artnoveau&#45;&gt;fotografiona</title>
<path fill="none" stroke="#808080" stroke-width="2" stroke-dasharray="1,5" d="M116.49,-221.128C100.115,-211.39 80.4262,-197.736 65.527,-186.003"/>
<polygon fill="#808080" stroke="#808080" points="67.3338,-182.961 57.3694,-179.36 62.9138,-188.389 67.3338,-182.961"/>
</g>
<!-- irgendwieanders -->
<g id="node5" class="node"><title>irgendwieanders</title>
<a xlink:href="http://irgendwasanderes.wordpress.com/" xlink:title="irgendwieanders">
<ellipse fill="none" stroke="black" cx="152" cy="-90" rx="57.9809" ry="18"/>
<text text-anchor="middle" x="152" y="-87.5" font-family="Times Roman,serif" font-size="10.00" fill="#204a87">irgendwieanders</text>
</a>
</g>
<!-- artnoveau&#45;&gt;irgendwieanders -->
<g id="edge12" class="edge"><title>artnoveau&#45;&gt;irgendwieanders</title>
<path fill="none" stroke="#808080" d="M146.387,-205.471C147.618,-180.137 149.408,-143.325 150.633,-118.116"/>
<polygon fill="#808080" stroke="#808080" points="142.876,-205.604 145.887,-215.762 149.868,-205.944 142.876,-205.604"/>
<polygon fill="#808080" stroke="#808080" points="154.131,-118.248 151.121,-108.09 147.139,-117.908 154.131,-118.248"/>
</g>
<!-- dridde -->
<g id="node9" class="node"><title>dridde</title>
<ellipse fill="none" stroke="black" cx="229" cy="-162" rx="28.9326" ry="18"/>
<text text-anchor="middle" x="229" y="-159.5" font-family="Times Roman,serif" font-size="10.00">dridde</text>
</g>
<!-- artnoveau&#45;&gt;dridde -->
<g id="edge5" class="edge"><title>artnoveau&#45;&gt;dridde</title>
<path fill="none" stroke="#000000" stroke-width="3" d="M161.357,-208.892C171.877,-198.967 185.31,-187.822 197.654,-178.889"/>
<polygon fill="#000000" stroke="#000000" points="158.603,-206.692 153.933,-216.202 163.514,-211.68 158.603,-206.692"/>
<polygon fill="#000000" stroke="#000000" points="199.766,-181.683 205.976,-173.1 195.768,-175.937 199.766,-181.683"/>
</g>
<!-- artnoveau&#45;&gt;dridde -->
<g id="edge24" class="edge"><title>artnoveau&#45;&gt;dridde</title>
<path fill="none" stroke="#808080" stroke-dasharray="1,5" d="M171.623,-220.457C185.427,-210.9 201.359,-197.828 213.319,-186.468"/>
<polygon fill="#808080" stroke="#808080" points="215.906,-188.831 220.542,-179.304 210.977,-183.861 215.906,-188.831"/>
</g>
<!-- erlehmann -->
<g id="node3" class="node"><title>erlehmann</title>
<a xlink:href="http://blog.dieweltistgarnichtso.net" xlink:title="erlehmann">
<ellipse fill="none" stroke="black" cx="273" cy="-18" rx="41.8599" ry="18"/>
<text text-anchor="middle" x="273" y="-15.5" font-family="Times Roman,serif" font-size="10.00" fill="#204a87">erlehmann</text>
</a>
</g>
<!-- fotografiona&#45;&gt;artnoveau -->
<g id="edge28" class="edge"><title>fotografiona&#45;&gt;artnoveau</title>
<path fill="none" stroke="#808080" stroke-width="4" stroke-dasharray="1,5" d="M74.8393,-175.667C90.9848,-185.37 110.078,-198.651 124.591,-210.09"/>
<polygon fill="#808080" stroke="#808080" points="122.585,-212.97 132.549,-216.571 127.005,-207.542 122.585,-212.97"/>
</g>
<!-- fotografiona&#45;&gt;erlehmann -->
<g id="edge21" class="edge"><title>fotografiona&#45;&gt;erlehmann</title>
<path fill="none" stroke="#000000" stroke-width="4" stroke-dasharray="1,5" d="M46.3358,-143.775C48.8106,-123.426 55.869,-90.8788 76,-72 97.2803,-52.0434 172.58,-35.4336 223.673,-26.112"/>
<polygon fill="#000000" stroke="#000000" points="224.318,-29.5522 233.546,-24.346 223.086,-22.6616 224.318,-29.5522"/>
</g>
<!-- dridde&#45;&gt;irgendwieanders -->
<g id="edge9" class="edge"><title>dridde&#45;&gt;irgendwieanders</title>
<path fill="none" stroke="#000000" stroke-width="4" d="M205.287,-139.827C196.623,-131.725 186.78,-122.522 177.933,-114.249"/>
<polygon fill="#000000" stroke="#000000" points="202.976,-142.457 212.67,-146.731 207.757,-137.344 202.976,-142.457"/>
<polygon fill="#000000" stroke="#000000" points="180.163,-111.542 170.468,-107.269 175.382,-116.655 180.163,-111.542"/>
</g>
<!-- birthe -->
<g id="node10" class="node"><title>birthe</title>
<ellipse fill="none" stroke="black" cx="273" cy="-90" rx="27.0858" ry="18"/>
<text text-anchor="middle" x="273" y="-87.5" font-family="Times Roman,serif" font-size="10.00">birthe</text>
</g>
<!-- dridde&#45;&gt;birthe -->
<g id="edge15" class="edge"><title>dridde&#45;&gt;birthe</title>
<path fill="none" stroke="#808080" d="M239.427,-144.937C244.797,-136.15 251.454,-125.258 257.419,-115.496"/>
<polygon fill="#808080" stroke="#808080" points="260.419,-117.298 262.647,-106.941 254.446,-113.648 260.419,-117.298"/>
</g>
<!-- birthe&#45;&gt;erlehmann -->
<g id="edge7" class="edge"><title>birthe&#45;&gt;erlehmann</title>
<path fill="none" stroke="#000000" stroke-width="2" d="M259.94,-63.6392C259.394,-57.7874 259.356,-51.5688 259.827,-45.6664"/>
<polygon fill="#000000" stroke="#000000" points="256.501,-64.309 261.478,-73.6621 263.42,-63.2468 256.501,-64.309"/>
<polygon fill="#000000" stroke="#000000" points="263.325,-45.9152 261.223,-35.5312 256.391,-44.9601 263.325,-45.9152"/>
</g>
<!-- birthe&#45;&gt;erlehmann -->
<g id="edge19" class="edge"><title>birthe&#45;&gt;erlehmann</title>
<path fill="none" stroke="#000000" stroke-dasharray="1,5" d="M284.522,-73.6621C286.374,-65.4023 286.926,-55.1505 286.176,-45.7045"/>
<polygon fill="#000000" stroke="#000000" points="289.607,-44.9612 284.777,-35.5312 282.672,-45.9148 289.607,-44.9612"/>
</g>
</g>
</svg>
